<svg width="168" height="50" viewBox="0 0 168 50" fill="none" xmlns="http://www.w3.org/2000/svg">
<mask id="mask0_1_430" style="mask-type:luminance" maskUnits="userSpaceOnUse" x="0" y="0" width="168" height="50">
<path d="M167.788 0H0V49.0556H167.788V0Z" fill="white"/>
</mask>
<g mask="url(#mask0_1_430)">
<path d="M40.5862 24.5278C40.5862 29.4551 39.7275 33.7607 38.0099 37.4446C36.2925 41.1127 33.9037 43.9651 30.8436 46.0014C27.7991 48.0376 24.286 49.0556 20.3048 49.0556C16.3078 49.0556 12.7793 48.0376 9.71911 46.0014C6.67458 43.9495 4.29358 41.0895 2.57616 37.4212C0.858719 33.7375 0 29.4397 0 24.5278C0 19.6005 0.858719 15.3027 2.57616 11.6344C4.30921 7.96609 6.698 5.11385 9.74253 3.07763C12.7871 1.02588 16.3078 0 20.3048 0C24.286 0 27.7991 1.01811 30.8436 3.05432C33.9037 5.09054 36.2925 7.95055 38.0099 11.6344C39.7275 15.3027 40.5862 19.6005 40.5862 24.5278ZM37.729 24.5278C37.729 20.0979 36.9795 16.2586 35.4807 13.01C33.9975 9.7614 31.9443 7.25109 29.3214 5.47912C26.6984 3.69161 23.6928 2.79784 20.3048 2.79784C16.9167 2.79784 13.9112 3.68384 11.2882 5.45581C8.66524 7.21224 6.60432 9.72252 5.10548 12.9867C3.62224 16.2353 2.88061 20.0824 2.88061 24.5278C2.88061 28.9268 3.61442 32.7581 5.08205 36.0222C6.56529 39.271 8.6184 41.7891 11.2414 43.5766C13.8644 45.3641 16.8855 46.2577 20.3048 46.2577C23.6928 46.2577 26.6984 45.3719 29.3214 43.5998C31.9443 41.8123 33.9975 39.2942 35.4807 36.0457C36.9795 32.7969 37.729 28.9578 37.729 24.5278Z" fill="black"/>
<path d="M102.198 0.65033V48.4002H99.3406L68.7547 5.94293H68.4736V48.4002H65.5461V0.65033H68.4267L99.0127 43.1543H99.2938V0.65033H102.198Z" fill="black"/>
<path d="M167.709 24.5279C167.709 29.4552 166.85 33.7608 165.133 37.4447C163.415 41.1128 161.027 43.9652 157.967 46.0015C154.922 48.0377 151.409 49.0557 147.428 49.0557C143.431 49.0557 139.902 48.0377 136.842 46.0015C133.798 43.9496 131.416 41.0896 129.699 37.4213C127.982 33.7376 127.123 29.4398 127.123 24.5279C127.123 19.6006 127.982 15.3028 129.699 11.6345C131.432 7.96618 133.821 5.11395 136.865 3.07772C139.91 1.02597 143.431 9.15527e-05 147.428 9.15527e-05C151.409 9.15527e-05 154.922 1.0182 157.967 3.05441C161.027 5.09063 163.415 7.95064 165.133 11.6345C166.85 15.3028 167.709 19.6006 167.709 24.5279ZM164.852 24.5279C164.852 20.098 164.102 16.2587 162.604 13.0101C161.12 9.76149 159.067 7.25119 156.444 5.47921C153.821 3.6917 150.816 2.79793 147.428 2.79793C144.04 2.79793 141.034 3.68393 138.411 5.4559C135.788 7.21233 133.727 9.72261 132.228 12.9868C130.745 16.2354 130.004 20.0824 130.004 24.5279C130.004 28.9268 130.737 32.7582 132.205 36.0223C133.688 39.2711 135.741 41.7892 138.364 43.5767C140.987 45.3642 144.008 46.2578 147.428 46.2578C150.816 46.2578 153.821 45.372 156.444 43.5999C159.067 41.8124 161.12 39.2943 162.604 36.0458C164.102 32.797 164.852 28.9579 164.852 24.5279Z" fill="black"/>
<path d="M50.2267 18.0912L52.5826 22.3921L54.9766 18.0912H57.8874L54.3686 23.9165L57.9482 29.742H55.0526L52.5826 25.5475L50.1355 29.742H47.2171L50.7739 23.9165L47.3083 18.0912H50.2267Z" fill="#00BAFF"/>
<path d="M118.346 23.7693L110.375 16.8708V30.6677L118.346 23.7693Z" fill="#00BAFF"/>
</g>
</svg>
